<svg xmlns="http://www.w3.org/2000/svg" width="800" height="500" viewBox="0 0 800 500"><defs><linearGradient id="bg" x1="0" y1="0" x2="1" y2="1"><stop offset="0" stop-color="#2a6f97"/><stop offset="1" stop-color="#0b2230"/></linearGradient></defs><rect width="800" height="500" fill="url(#bg)"/><polygon points="-40,40 840,47 840,88 -40,81" fill="#62b6d8" fill-opacity="0.67"/><polygon points="-40,91 840,119 840,164 -40,136" fill="#1c6dd0" fill-opacity="0.69"/><polygon points="-40,146 840,153 840,207 -40,200" fill="#9bd0e8" fill-opacity="0.48"/><polygon points="-40,210 840,238 840,272 -40,244" fill="#2a6f97" fill-opacity="0.78"/><polygon points="-40,254 840,259 840,301 -40,296" fill="#3f86c4" fill-opacity="0.54"/><polygon points="-40,306 840,306 840,362 -40,362" fill="#62b6d8" fill-opacity="0.67"/><polygon points="-40,372 840,372 840,423 -40,423" fill="#1c6dd0" fill-opacity="0.61"/><polygon points="-40,433 840,412 840,473 -40,494" fill="#9bd0e8" fill-opacity="0.54"/></svg>