<svg xmlns="http://www.w3.org/2000/svg" width="800" height="500" viewBox="0 0 800 500"><defs><linearGradient id="bg" x1="0" y1="0" x2="1" y2="1"><stop offset="0" stop-color="#15406b"/><stop offset="1" stop-color="#081827"/></linearGradient></defs><rect width="800" height="500" fill="url(#bg)"/><g fill="none" stroke="#3f86c4" stroke-opacity="0.35" stroke-width="2"><polygon points="66.0,-46.0 43.0,-6.2 -3.0,-6.2 -26.0,-46.0 -3.0,-85.8 43.0,-85.8"/><polygon points="66.0,33.7 43.0,73.5 -3.0,73.5 -26.0,33.7 -3.0,-6.2 43.0,-6.2"/><polygon points="66.0,113.3 43.0,153.2 -3.0,153.2 -26.0,113.3 -3.0,73.5 43.0,73.5"/><polygon points="66.0,193.0 43.0,232.9 -3.0,232.9 -26.0,193.0 -3.0,153.2 43.0,153.2"/><polygon points="66.0,272.7 43.0,312.5 -3.0,312.5 -26.0,272.7 -3.0,232.9 43.0,232.9"/><polygon points="66.0,352.4 43.0,392.2 -3.0,392.2 -26.0,352.4 -3.0,312.5 43.0,312.5"/><polygon points="66.0,432.0 43.0,471.9 -3.0,471.9 -26.0,432.0 -3.0,392.2 43.0,392.2"/><polygon points="66.0,511.7 43.0,551.6 -3.0,551.6 -26.0,511.7 -3.0,471.9 43.0,471.9"/><polygon points="135.0,-6.2 112.0,33.7 66.0,33.7 43.0,-6.2 66.0,-46.0 112.0,-46.0"/><polygon points="135.0,73.5 112.0,113.3 66.0,113.3 43.0,73.5 66.0,33.7 112.0,33.7"/><polygon points="135.0,153.2 112.0,193.0 66.0,193.0 43.0,153.2 66.0,113.3 112.0,113.3"/><polygon points="135.0,232.9 112.0,272.7 66.0,272.7 43.0,232.9 66.0,193.0 112.0,193.0"/><polygon points="135.0,312.5 112.0,352.4 66.0,352.4 43.0,312.5 66.0,272.7 112.0,272.7"/><polygon points="135.0,392.2 112.0,432.0 66.0,432.0 43.0,392.2 66.0,352.4 112.0,352.4"/><polygon points="135.0,471.9 112.0,511.7 66.0,511.7 43.0,471.9 66.0,432.0 112.0,432.0"/><polygon points="135.0,551.6 112.0,591.4 66.0,591.4 43.0,551.6 66.0,511.7 112.0,511.7"/><polygon points="204.0,-46.0 181.0,-6.2 135.0,-6.2 112.0,-46.0 135.0,-85.8 181.0,-85.8"/><polygon points="204.0,33.7 181.0,73.5 135.0,73.5 112.0,33.7 135.0,-6.2 181.0,-6.2"/><polygon points="204.0,113.3 181.0,153.2 135.0,153.2 112.0,113.3 135.0,73.5 181.0,73.5"/><polygon points="204.0,193.0 181.0,232.9 135.0,232.9 112.0,193.0 135.0,153.2 181.0,153.2"/><polygon points="204.0,272.7 181.0,312.5 135.0,312.5 112.0,272.7 135.0,232.9 181.0,232.9"/><polygon points="204.0,352.4 181.0,392.2 135.0,392.2 112.0,352.4 135.0,312.5 181.0,312.5"/><polygon points="204.0,432.0 181.0,471.9 135.0,471.9 112.0,432.0 135.0,392.2 181.0,392.2"/><polygon points="204.0,511.7 181.0,551.6 135.0,551.6 112.0,511.7 135.0,471.9 181.0,471.9"/><polygon points="273.0,-6.2 250.0,33.7 204.0,33.7 181.0,-6.2 204.0,-46.0 250.0,-46.0"/><polygon points="273.0,73.5 250.0,113.3 204.0,113.3 181.0,73.5 204.0,33.7 250.0,33.7"/><polygon points="273.0,153.2 250.0,193.0 204.0,193.0 181.0,153.2 204.0,113.3 250.0,113.3"/><polygon points="273.0,232.9 250.0,272.7 204.0,272.7 181.0,232.9 204.0,193.0 250.0,193.0"/><polygon points="273.0,312.5 250.0,352.4 204.0,352.4 181.0,312.5 204.0,272.7 250.0,272.7"/><polygon points="273.0,392.2 250.0,432.0 204.0,432.0 181.0,392.2 204.0,352.4 250.0,352.4"/><polygon points="273.0,471.9 250.0,511.7 204.0,511.7 181.0,471.9 204.0,432.0 250.0,432.0"/><polygon points="273.0,551.6 250.0,591.4 204.0,591.4 181.0,551.6 204.0,511.7 250.0,511.7"/><polygon points="342.0,-46.0 319.0,-6.2 273.0,-6.2 250.0,-46.0 273.0,-85.8 319.0,-85.8"/><polygon points="342.0,33.7 319.0,73.5 273.0,73.5 250.0,33.7 273.0,-6.2 319.0,-6.2"/><polygon points="342.0,113.3 319.0,153.2 273.0,153.2 250.0,113.3 273.0,73.5 319.0,73.5"/><polygon points="342.0,193.0 319.0,232.9 273.0,232.9 250.0,193.0 273.0,153.2 319.0,153.2"/><polygon points="342.0,272.7 319.0,312.5 273.0,312.5 250.0,272.7 273.0,232.9 319.0,232.9"/><polygon points="342.0,352.4 319.0,392.2 273.0,392.2 250.0,352.4 273.0,312.5 319.0,312.5"/><polygon points="342.0,432.0 319.0,471.9 273.0,471.9 250.0,432.0 273.0,392.2 319.0,392.2"/><polygon points="342.0,511.7 319.0,551.6 273.0,551.6 250.0,511.7 273.0,471.9 319.0,471.9"/><polygon points="411.0,-6.2 388.0,33.7 342.0,33.7 319.0,-6.2 342.0,-46.0 388.0,-46.0"/><polygon points="411.0,73.5 388.0,113.3 342.0,113.3 319.0,73.5 342.0,33.7 388.0,33.7"/><polygon points="411.0,153.2 388.0,193.0 342.0,193.0 319.0,153.2 342.0,113.3 388.0,113.3"/><polygon points="411.0,232.9 388.0,272.7 342.0,272.7 319.0,232.9 342.0,193.0 388.0,193.0"/><polygon points="411.0,312.5 388.0,352.4 342.0,352.4 319.0,312.5 342.0,272.7 388.0,272.7"/><polygon points="411.0,392.2 388.0,432.0 342.0,432.0 319.0,392.2 342.0,352.4 388.0,352.4"/><polygon points="411.0,471.9 388.0,511.7 342.0,511.7 319.0,471.9 342.0,432.0 388.0,432.0"/><polygon points="411.0,551.6 388.0,591.4 342.0,591.4 319.0,551.6 342.0,511.7 388.0,511.7"/><polygon points="480.0,-46.0 457.0,-6.2 411.0,-6.2 388.0,-46.0 411.0,-85.8 457.0,-85.8"/><polygon points="480.0,33.7 457.0,73.5 411.0,73.5 388.0,33.7 411.0,-6.2 457.0,-6.2"/><polygon points="480.0,113.3 457.0,153.2 411.0,153.2 388.0,113.3 411.0,73.5 457.0,73.5"/><polygon points="480.0,193.0 457.0,232.9 411.0,232.9 388.0,193.0 411.0,153.2 457.0,153.2"/><polygon points="480.0,272.7 457.0,312.5 411.0,312.5 388.0,272.7 411.0,232.9 457.0,232.9"/><polygon points="480.0,352.4 457.0,392.2 411.0,392.2 388.0,352.4 411.0,312.5 457.0,312.5"/><polygon points="480.0,432.0 457.0,471.9 411.0,471.9 388.0,432.0 411.0,392.2 457.0,392.2"/><polygon points="480.0,511.7 457.0,551.6 411.0,551.6 388.0,511.7 411.0,471.9 457.0,471.9"/><polygon points="549.0,-6.2 526.0,33.7 480.0,33.7 457.0,-6.2 480.0,-46.0 526.0,-46.0"/><polygon points="549.0,73.5 526.0,113.3 480.0,113.3 457.0,73.5 480.0,33.7 526.0,33.7"/><polygon points="549.0,153.2 526.0,193.0 480.0,193.0 457.0,153.2 480.0,113.3 526.0,113.3"/><polygon points="549.0,232.9 526.0,272.7 480.0,272.7 457.0,232.9 480.0,193.0 526.0,193.0"/><polygon points="549.0,312.5 526.0,352.4 480.0,352.4 457.0,312.5 480.0,272.7 526.0,272.7"/><polygon points="549.0,392.2 526.0,432.0 480.0,432.0 457.0,392.2 480.0,352.4 526.0,352.4"/><polygon points="549.0,471.9 526.0,511.7 480.0,511.7 457.0,471.9 480.0,432.0 526.0,432.0"/><polygon points="549.0,551.6 526.0,591.4 480.0,591.4 457.0,551.6 480.0,511.7 526.0,511.7"/><polygon points="618.0,-46.0 595.0,-6.2 549.0,-6.2 526.0,-46.0 549.0,-85.8 595.0,-85.8"/><polygon points="618.0,33.7 595.0,73.5 549.0,73.5 526.0,33.7 549.0,-6.2 595.0,-6.2"/><polygon points="618.0,113.3 595.0,153.2 549.0,153.2 526.0,113.3 549.0,73.5 595.0,73.5"/><polygon points="618.0,193.0 595.0,232.9 549.0,232.9 526.0,193.0 549.0,153.2 595.0,153.2"/><polygon points="618.0,272.7 595.0,312.5 549.0,312.5 526.0,272.7 549.0,232.9 595.0,232.9"/><polygon points="618.0,352.4 595.0,392.2 549.0,392.2 526.0,352.4 549.0,312.5 595.0,312.5"/><polygon points="618.0,432.0 595.0,471.9 549.0,471.9 526.0,432.0 549.0,392.2 595.0,392.2"/><polygon points="618.0,511.7 595.0,551.6 549.0,551.6 526.0,511.7 549.0,471.9 595.0,471.9"/><polygon points="687.0,-6.2 664.0,33.7 618.0,33.7 595.0,-6.2 618.0,-46.0 664.0,-46.0"/><polygon points="687.0,73.5 664.0,113.3 618.0,113.3 595.0,73.5 618.0,33.7 664.0,33.7"/><polygon points="687.0,153.2 664.0,193.0 618.0,193.0 595.0,153.2 618.0,113.3 664.0,113.3"/><polygon points="687.0,232.9 664.0,272.7 618.0,272.7 595.0,232.9 618.0,193.0 664.0,193.0"/><polygon points="687.0,312.5 664.0,352.4 618.0,352.4 595.0,312.5 618.0,272.7 664.0,272.7"/><polygon points="687.0,392.2 664.0,432.0 618.0,432.0 595.0,392.2 618.0,352.4 664.0,352.4"/><polygon points="687.0,471.9 664.0,511.7 618.0,511.7 595.0,471.9 618.0,432.0 664.0,432.0"/><polygon points="687.0,551.6 664.0,591.4 618.0,591.4 595.0,551.6 618.0,511.7 664.0,511.7"/><polygon points="756.0,-46.0 733.0,-6.2 687.0,-6.2 664.0,-46.0 687.0,-85.8 733.0,-85.8"/><polygon points="756.0,33.7 733.0,73.5 687.0,73.5 664.0,33.7 687.0,-6.2 733.0,-6.2"/><polygon points="756.0,113.3 733.0,153.2 687.0,153.2 664.0,113.3 687.0,73.5 733.0,73.5"/><polygon points="756.0,193.0 733.0,232.9 687.0,232.9 664.0,193.0 687.0,153.2 733.0,153.2"/><polygon points="756.0,272.7 733.0,312.5 687.0,312.5 664.0,272.7 687.0,232.9 733.0,232.9"/><polygon points="756.0,352.4 733.0,392.2 687.0,392.2 664.0,352.4 687.0,312.5 733.0,312.5"/><polygon points="756.0,432.0 733.0,471.9 687.0,471.9 664.0,432.0 687.0,392.2 733.0,392.2"/><polygon points="756.0,511.7 733.0,551.6 687.0,551.6 664.0,511.7 687.0,471.9 733.0,471.9"/><polygon points="825.0,-6.2 802.0,33.7 756.0,33.7 733.0,-6.2 756.0,-46.0 802.0,-46.0"/><polygon points="825.0,73.5 802.0,113.3 756.0,113.3 733.0,73.5 756.0,33.7 802.0,33.7"/><polygon points="825.0,153.2 802.0,193.0 756.0,193.0 733.0,153.2 756.0,113.3 802.0,113.3"/><polygon points="825.0,232.9 802.0,272.7 756.0,272.7 733.0,232.9 756.0,193.0 802.0,193.0"/><polygon points="825.0,312.5 802.0,352.4 756.0,352.4 733.0,312.5 756.0,272.7 802.0,272.7"/><polygon points="825.0,392.2 802.0,432.0 756.0,432.0 733.0,392.2 756.0,352.4 802.0,352.4"/><polygon points="825.0,471.9 802.0,511.7 756.0,511.7 733.0,471.9 756.0,432.0 802.0,432.0"/><polygon points="825.0,551.6 802.0,591.4 756.0,591.4 733.0,551.6 756.0,511.7 802.0,511.7"/></g><polygon points="491.0,167.0 471.0,201.6 431.0,201.6 411.0,167.0 431.0,132.4 471.0,132.4" fill="#3f86c4" fill-opacity="0.3"/><polygon points="564.0,114.0 544.0,148.6 504.0,148.6 484.0,114.0 504.0,79.4 544.0,79.4" fill="#3f86c4" fill-opacity="0.3"/><polygon points="234.0,364.0 214.0,398.6 174.0,398.6 154.0,364.0 174.0,329.4 214.0,329.4" fill="#3f86c4" fill-opacity="0.3"/><polygon points="256.0,277.0 236.0,311.6 196.0,311.6 176.0,277.0 196.0,242.4 236.0,242.4" fill="#3f86c4" fill-opacity="0.3"/><polygon points="219.0,349.0 199.0,383.6 159.0,383.6 139.0,349.0 159.0,314.4 199.0,314.4" fill="#3f86c4" fill-opacity="0.3"/></svg>