<svg xmlns="http://www.w3.org/2000/svg" width="800" height="500" viewBox="0 0 800 500"><defs><linearGradient id="bg" x1="0" y1="0" x2="1" y2="1"><stop offset="0" stop-color="#1c6dd0"/><stop offset="1" stop-color="#0b1f3a"/></linearGradient><radialGradient id="pl" cx="0.35" cy="0.3" r="0.8"><stop offset="0" stop-color="#fff" stop-opacity="0.6"/><stop offset="0.5" stop-color="#5aa9e6"/><stop offset="1" stop-color="#5aa9e6" stop-opacity="0.8"/></radialGradient></defs><rect width="800" height="500" fill="url(#bg)"/><g transform="translate(513,346) rotate(115)" opacity="0.8"><ellipse rx="36" ry="25" fill="url(#pl)"/></g><g transform="translate(651,157) rotate(131)" opacity="0.79"><ellipse rx="27" ry="18" fill="url(#pl)"/></g><g transform="translate(678,155) rotate(114)" opacity="0.72"><ellipse rx="25" ry="17" fill="url(#pl)"/></g><g transform="translate(142,335) rotate(152)" opacity="0.99"><ellipse rx="23" ry="16" fill="url(#pl)"/></g><g transform="translate(513,394) rotate(159)" opacity="0.61"><ellipse rx="27" ry="18" fill="url(#pl)"/></g><g transform="translate(591,92) rotate(9)" opacity="0.68"><ellipse rx="23" ry="16" fill="url(#pl)"/></g><g transform="translate(297,367) rotate(118)" opacity="0.73"><ellipse rx="22" ry="15" fill="url(#pl)"/></g><g transform="translate(655,160) rotate(59)" opacity="0.86"><ellipse rx="38" ry="26" fill="url(#pl)"/></g><g transform="translate(561,62) rotate(117)" opacity="0.86"><ellipse rx="24" ry="16" fill="url(#pl)"/></g><g transform="translate(466,342) rotate(65)" opacity="0.73"><ellipse rx="24" ry="16" fill="url(#pl)"/></g><g transform="translate(285,322) rotate(7)" opacity="0.63"><ellipse rx="31" ry="21" fill="url(#pl)"/></g><g transform="translate(160,265) rotate(74)" opacity="0.75"><ellipse rx="25" ry="17" fill="url(#pl)"/></g><g transform="translate(67,410) rotate(54)" opacity="0.68"><ellipse rx="22" ry="15" fill="url(#pl)"/></g><g transform="translate(103,300) rotate(101)" opacity="0.77"><ellipse rx="34" ry="23" fill="url(#pl)"/></g><g transform="translate(629,382) rotate(172)" opacity="0.71"><ellipse rx="28" ry="19" fill="url(#pl)"/></g><g transform="translate(139,219) rotate(3)" opacity="0.99"><ellipse rx="32" ry="22" fill="url(#pl)"/></g><g transform="translate(170,128) rotate(180)" opacity="0.64"><ellipse rx="29" ry="20" fill="url(#pl)"/></g><g transform="translate(111,298) rotate(45)" opacity="0.87"><ellipse rx="37" ry="25" fill="url(#pl)"/></g><g transform="translate(242,289) rotate(48)" opacity="0.99"><ellipse rx="38" ry="26" fill="url(#pl)"/></g><g transform="translate(184,274) rotate(29)" opacity="0.76"><ellipse rx="34" ry="23" fill="url(#pl)"/></g><g transform="translate(267,60) rotate(151)" opacity="0.72"><ellipse rx="30" ry="21" fill="url(#pl)"/></g><g transform="translate(70,167) rotate(100)" opacity="1.0"><ellipse rx="27" ry="18" fill="url(#pl)"/></g><g transform="translate(666,388) rotate(25)" opacity="0.62"><ellipse rx="40" ry="28" fill="url(#pl)"/></g><g transform="translate(199,169) rotate(66)" opacity="0.6"><ellipse rx="36" ry="25" fill="url(#pl)"/></g><g transform="translate(674,228) rotate(98)" opacity="0.63"><ellipse rx="31" ry="21" fill="url(#pl)"/></g><g transform="translate(142,166) rotate(162)" opacity="0.7"><ellipse rx="40" ry="28" fill="url(#pl)"/></g><g transform="translate(665,248) rotate(159)" opacity="0.78"><ellipse rx="33" ry="23" fill="url(#pl)"/></g><g transform="translate(651,307) rotate(34)" opacity="0.95"><ellipse rx="40" ry="28" fill="url(#pl)"/></g><g transform="translate(237,381) rotate(79)" opacity="0.96"><ellipse rx="26" ry="18" fill="url(#pl)"/></g><g transform="translate(675,187) rotate(40)" opacity="0.9"><ellipse rx="28" ry="19" fill="url(#pl)"/></g><g transform="translate(617,160) rotate(123)" opacity="0.84"><ellipse rx="34" ry="23" fill="url(#pl)"/></g><g transform="translate(481,84) rotate(27)" opacity="0.62"><ellipse rx="25" ry="17" fill="url(#pl)"/></g><g transform="translate(311,182) rotate(65)" opacity="0.77"><ellipse rx="34" ry="23" fill="url(#pl)"/></g><g transform="translate(660,311) rotate(133)" opacity="0.67"><ellipse rx="31" ry="21" fill="url(#pl)"/></g><g transform="translate(120,124) rotate(122)" opacity="0.82"><ellipse rx="29" ry="20" fill="url(#pl)"/></g><g transform="translate(680,374) rotate(71)" opacity="0.68"><ellipse rx="24" ry="16" fill="url(#pl)"/></g><g transform="translate(258,443) rotate(17)" opacity="0.71"><ellipse rx="22" ry="15" fill="url(#pl)"/></g><g transform="translate(506,187) rotate(11)" opacity="0.67"><ellipse rx="23" ry="16" fill="url(#pl)"/></g><g transform="translate(427,331) rotate(33)" opacity="0.64"><ellipse rx="40" ry="28" fill="url(#pl)"/></g><g transform="translate(191,290) rotate(168)" opacity="0.89"><ellipse rx="32" ry="22" fill="url(#pl)"/></g></svg>